HIERARCHY
ROOT Hips
{
  OFFSET 45 99.8902 7.75848
  CHANNELS 6 Xposition Yposition Zposition Zrotation Xrotation Yrotation
  JOINT spine
  {
    OFFSET 0 8.81704 0.507024
    CHANNELS 3 Zrotation Xrotation Yrotation
    JOINT spine1
    {
      OFFSET 0 10.7766 0
      CHANNELS 3 Zrotation Xrotation Yrotation
      JOINT spine2
      {
        OFFSET 0 10.3259 0
        CHANNELS 3 Zrotation Xrotation Yrotation
        JOINT Neck
        {
          OFFSET 0 26.511 1.26395
          CHANNELS 3 Zrotation Xrotation Yrotation
          JOINT Head
          {
            OFFSET 0 8.00966 0
            CHANNELS 3 Zrotation Xrotation Yrotation
            End Site
            {
              OFFSET 0 19.3879 -6.39386
            }
          }
        }
        JOINT RightShoulder
        {
          OFFSET -4.34795 11.1512 -0.605422
          CHANNELS 3 Zrotation Xrotation Yrotation
          JOINT RightArm
          {
            OFFSET 0 14.6258 0
            CHANNELS 3 Zrotation Xrotation Yrotation
            JOINT RightArmRoll
            {
              OFFSET 0 7.3834 0
              CHANNELS 3 Zrotation Xrotation Yrotation
              JOINT RightForeArm
              {
                OFFSET 0 21.5052 0
                CHANNELS 3 Zrotation Xrotation Yrotation
                JOINT RightForeArmRoll
                {
                  OFFSET 0 8.28532 0
                  CHANNELS 3 Zrotation Xrotation Yrotation
                  JOINT RightHand
                  {
                    OFFSET 0 16.6268 0
                    CHANNELS 3 Zrotation Xrotation Yrotation
                    End Site
                    {
                      OFFSET 0 0 0
                    }
                  }
                }
              }
            }
          }
        }
        JOINT LeftShoulder
        {
          OFFSET 4.34795 11.1512 -0.605422
          CHANNELS 3 Zrotation Xrotation Yrotation
          JOINT LeftArm
          {
            OFFSET 0 14.6258 0
            CHANNELS 3 Zrotation Xrotation Yrotation
            JOINT LeftArmRoll
            {
              OFFSET 0 7.3834 0
              CHANNELS 3 Zrotation Xrotation Yrotation
              JOINT LeftForeArm
              {
                OFFSET 0 21.5052 0
                CHANNELS 3 Zrotation Xrotation Yrotation
                JOINT LeftForeArmRoll
                {
                  OFFSET 0 8.28532 0
                  CHANNELS 3 Zrotation Xrotation Yrotation
                  JOINT LeftHand
                  {
                    OFFSET 0 16.6268 0
                    CHANNELS 3 Zrotation Xrotation Yrotation
                    End Site
                    {
                      OFFSET 0 0 0
                    }
                  }
                }
              }
            }
          }
        }
      }
    }
  }
  JOINT RightUpLeg
  {
    OFFSET -7.8151 -1.43309 -1.20217
    CHANNELS 3 Zrotation Xrotation Yrotation
    JOINT RightUpLegRoll
    {
      OFFSET 0 19.4959 0
      CHANNELS 3 Zrotation Xrotation Yrotation
      JOINT RightLeg
      {
        OFFSET 0 -24.1427 0
        CHANNELS 3 Zrotation Xrotation Yrotation
        JOINT RightLegRoll
        {
          OFFSET 0 24.2217 0
          CHANNELS 3 Zrotation Xrotation Yrotation
          JOINT RightFoot
          {
            OFFSET 0 20.1605 0
            CHANNELS 3 Zrotation Xrotation Yrotation
            JOINT RightToeBase
            {
              OFFSET 0 16.8532 0
              CHANNELS 3 Zrotation Xrotation Yrotation
              End Site
              {
                OFFSET 0.00714342 8.16186 -0.940781
              }
            }
          }
        }
      }
    }
  }
  JOINT LeftUpLeg
  {
    OFFSET 7.8151 -1.43309 -1.20217
    CHANNELS 3 Zrotation Xrotation Yrotation
    JOINT LeftUpLegRoll
    {
      OFFSET 0 19.496 0
      CHANNELS 3 Zrotation Xrotation Yrotation
      JOINT LeftLeg
      {
        OFFSET 0 24.1426 0
        CHANNELS 3 Zrotation Xrotation Yrotation
        JOINT LeftLegRoll
        {
          OFFSET 0 24.4456 0
          CHANNELS 3 Zrotation Xrotation Yrotation
          JOINT LeftFoot
          {
            OFFSET 0 19.9366 0
            CHANNELS 3 Zrotation Xrotation Yrotation
            JOINT LeftToeBase
            {
              OFFSET 0 16.8532 0
              CHANNELS 3 Zrotation Xrotation Yrotation
              End Site
              {
                OFFSET -0.0320138 8.16188 -0.94078
              }
            }
          }
        }
      }
    }
  }
}
MOTION
Frames: 13
Frame Time: 0.00208333
50.8321 114.597 18.4073 -3.62995 8.53682 8.3948 0.194873 -2.22155 0.0618692 0.39101 -0.440126 0.106059 0.389823 1.20493 0.0995329 -8.32051 -7.46362 -0.106158 3.94416 14.8678 -0.75527 38.5097 -10.1967 -6.30547 103.693 -39.8782 -82.8417 3.01558e-006 -3.96121e-007 1.05971e-006 -98.9392 64.3928 73.7838 -4.18213e-006 2.16936e-006 -3.00246 8.02887 -4.95146 0.697672 -48.4487 -8.83146 5.28937 -93.012 -26.8752 64.5171 -3.00225e-005 4.28475e-007 -2.281e-006 120.184 72.993 -97.1105 2.67681e-005 3.49843e-006 3.00001 -8.02891 -4.95147 -0.697671 177.381 19.3805 2.40388 180 7.0155e-015 178.935 175.605 29.604 179.904 -3.63578e-006 -3.53707e-006 0.418977 -17.9747 67.594 19.1965 8.13649 25.2327 -3.48774 -171.097 22.7711 -4.89233 4.54188e-006 -4.6773e-006 -1.05157 -4.66091 -30.5894 -0.299114 2.20793e-006 -2.58006e-006 -0.436314 18.4849 67.9841 -19.5267 -8.13649 25.2327 3.48774 
50.8243 114.486 18.3946 -3.633 8.57186 8.3957 0.193899 -2.21933 0.0638077 0.38912 -0.435678 0.110005 0.387886 1.20937 0.10351 -8.32099 -7.41044 -0.102522 3.96475 14.7431 -0.751135 38.5423 -10.2007 -6.3092 103.991 -39.673 -82.1946 3.01558e-006 -3.96121e-007 1.05971e-006 -98.5186 64.7573 73.823 -4.18213e-006 2.16936e-006 -3.00246 8.02887 -4.95146 0.697672 -48.4591 -8.85862 5.31026 -93.046 -26.8339 64.3814 -3.00225e-005 4.28475e-007 -2.281e-006 120.145 73.0489 -97.1391 2.67681e-005 3.49843e-006 3.00001 -8.02891 -4.95147 -0.697671 177.42 19.4348 2.3596 180 7.0155e-015 178.937 175.626 29.5639 179.897 -3.63578e-006 -3.53707e-006 0.418699 -17.9735 67.5922 19.1949 8.13649 25.2327 -3.48774 -171.079 22.8284 -4.89318 4.54188e-006 -4.6773e-006 -1.05073 -4.66355 -30.5062 -0.298652 2.20793e-006 -2.58006e-006 -0.435375 18.4845 67.9839 -19.5269 -8.13649 25.2327 3.48774 
50.8186 114.385 18.3568 -3.637 8.60523 8.3946 0.192994 -2.21659 0.0654677 0.387359 -0.430204 0.113385 0.386085 1.21485 0.106919 -8.31883 -7.3592 -0.0975128 3.98386 14.6204 -0.74526 38.5767 -10.2037 -6.31211 104.289 -39.4606 -81.5451 3.01558e-006 -3.96121e-007 1.05971e-006 -98.0788 65.1248 73.8463 -4.18213e-006 2.16936e-006 -3.00245 8.02887 -4.95146 0.697672 -48.4683 -8.88881 5.3334 -93.0865 -26.7921 64.2359 -3.00225e-005 4.28475e-007 -2.281e-006 120.089 73.1144 -97.1612 2.67681e-005 3.49843e-006 3.00001 -8.02891 -4.95147 -0.697671 177.462 19.4884 2.31475 180 7.01551e-015 178.939 175.646 29.5254 179.89 -3.63578e-006 -3.53707e-006 0.41843 -17.9718 67.5898 19.1929 8.13649 25.2327 -3.48774 -171.061 22.8825 -4.89423 4.54188e-006 -4.6773e-006 -1.04981 -4.66584 -30.4206 -0.298085 2.20793e-006 -2.58006e-006 -0.434375 18.4846 67.9844 -19.5277 -8.13649 25.2327 3.48774 
50.7822 114.24 18.3129 -3.64209 8.63675 8.39169 0.192166 -2.21325 0.0667916 0.385741 -0.423502 0.116083 0.384435 1.22155 0.109645 -8.31408 -7.3111 -0.0912333 4.00181 14.5004 -0.737713 38.6125 -10.2059 -6.31425 104.587 -39.2414 -80.8929 3.01558e-006 -3.96121e-007 1.05971e-006 -97.6187 65.4949 73.8521 -4.18213e-006 2.16936e-006 -3.00245 8.02887 -4.95146 0.697672 -48.4762 -8.92206 5.35881 -93.1334 -26.7499 64.0805 -3.00225e-005 4.28475e-007 -2.281e-006 120.015 73.1896 -97.1763 2.67681e-005 3.49843e-006 3.00001 -8.02891 -4.95147 -0.697671 177.505 19.5412 2.2695 180 7.01551e-015 178.941 175.665 29.4891 179.884 -3.63578e-006 -3.53707e-006 0.418165 -17.9698 67.5869 19.1905 8.13649 25.2327 -3.48774 -171.04 22.9339 -4.89566 4.54188e-006 -4.6773e-006 -1.04878 -4.66772 -30.3344 -0.297409 2.20793e-006 -2.58006e-006 -0.433331 18.4852 67.9855 -19.5289 -8.13649 25.2327 3.48774 
50.7999 114.147 18.3095 -3.64838 8.66623 8.38718 0.191423 -2.20919 0.0677217 0.38428 -0.415371 0.117985 0.382952 1.22968 0.111572 -8.30678 -7.26735 -0.0837868 4.01885 14.3841 -0.728563 38.6494 -10.2074 -6.31571 104.885 -39.0162 -80.2382 3.01558e-006 -3.96121e-007 1.05971e-006 -97.1372 65.867 73.8385 -4.18213e-006 2.16936e-006 -3.00245 8.02887 -4.95146 0.697672 -48.483 -8.95841 5.38652 -93.1865 -26.7074 63.9147 -3.00225e-005 4.28475e-007 -2.281e-006 119.923 73.2748 -97.1838 2.67681e-005 3.49843e-006 3.00001 -8.02891 -4.95147 -0.697671 177.551 19.5935 2.22404 180 7.01552e-015 178.943 175.683 29.4559 179.878 -3.63578e-006 -3.53707e-006 0.417901 -17.9673 67.5836 19.1878 8.13649 25.2327 -3.48774 -171.019 22.9828 -4.89767 4.54188e-006 -4.6773e-006 -1.04765 -4.66908 -30.2491 -0.296619 2.20793e-006 -2.58006e-006 -0.432263 18.4863 67.9871 -19.5306 -8.13649 25.2327 3.48774 
50.7539 114.003 18.2582 -3.65602 8.69349 8.38128 0.190774 -2.20431 0.0682002 0.382989 -0.405612 0.118975 0.38165 1.23944 0.112583 -8.29699 -7.22913 -0.0752765 4.03529 14.2722 -0.717878 38.6871 -10.2081 -6.31654 105.186 -38.7854 -79.5807 3.01558e-006 -3.96121e-007 1.05971e-006 -96.633 66.2406 73.8037 -4.18213e-006 2.16936e-006 -3.00244 8.02887 -4.95146 0.697672 -48.489 -8.99789 5.41656 -93.246 -26.6647 63.7384 -3.00225e-005 4.28475e-007 -2.281e-006 119.812 73.3702 -97.1833 2.67681e-005 3.49843e-006 3.00001 -8.02891 -4.95147 -0.697671 177.598 19.6453 2.17855 180 7.01552e-015 178.945 175.7 29.4266 179.873 -3.63578e-006 -3.53707e-006 0.417634 -17.9646 67.5799 19.1848 8.13649 25.2327 -3.48774 -170.995 23.0298 -4.90044 4.54188e-006 -4.6773e-006 -1.0464 -4.66983 -30.1664 -0.29571 2.20793e-006 -2.58006e-006 -0.431189 18.4878 67.9892 -19.5327 -8.13649 25.2327 3.48774 
50.8228 113.888 18.2193 -3.66512 8.71833 8.37421 0.190226 -2.19851 0.0681695 0.381884 -0.394022 0.118938 0.380547 1.25103 0.112564 -8.28475 -7.19766 -0.0658051 4.0514 14.1655 -0.705725 38.7253 -10.2083 -6.31683 105.489 -38.5497 -78.9202 3.01558e-006 -3.96121e-007 1.05971e-006 -96.1048 66.6152 73.7457 -4.18213e-006 2.16936e-006 -3.00244 8.02887 -4.95146 0.697672 -48.4941 -9.04054 5.44895 -93.3116 -26.6217 63.5512 -3.00225e-005 4.28475e-007 -2.281e-006 119.681 73.4759 -97.174 2.67681e-005 3.49843e-006 3.00001 -8.02891 -4.95147 -0.697671 177.648 19.6968 2.13321 180 7.01552e-015 178.947 175.716 29.402 179.868 -3.63578e-006 -3.53707e-006 0.417359 -17.9617 67.5759 19.1817 8.13649 25.2327 -3.48774 -170.97 23.0752 -4.90418 4.54188e-006 -4.6773e-006 -1.04503 -4.6699 -30.088 -0.294679 2.20793e-006 -2.58006e-006 -0.430126 18.4898 67.9919 -19.5352 -8.13649 25.2327 3.48774 
50.7893 113.734 18.175 -3.67584 8.74057 8.36616 0.189786 -2.1917 0.0675718 0.380979 -0.380401 0.117757 0.379657 1.26465 0.111398 -8.2701 -7.17411 -0.0554752 4.06746 14.0648 -0.692171 38.7639 -10.2079 -6.31664 105.794 -38.3095 -78.2564 3.01558e-006 -3.96121e-007 1.05971e-006 -95.5512 66.9903 73.6623 -4.18213e-006 2.16936e-006 -3.00244 8.02887 -4.95146 0.697672 -48.4986 -9.08638 5.48371 -93.3833 -26.5787 63.3529 -3.00225e-005 4.28474e-007 -2.281e-006 119.53 73.5922 -97.1555 2.67681e-005 3.49843e-006 3.00001 -8.02891 -4.95147 -0.697671 177.699 19.7482 2.08821 180 7.01553e-015 178.949 175.729 29.383 179.864 -3.63578e-006 -3.53707e-006 0.417073 -17.9585 67.5718 19.1785 8.13649 25.2327 -3.48774 -170.944 23.1195 -4.90907 4.54188e-006 -4.6773e-006 -1.04352 -4.66918 -30.0155 -0.293519 2.20793e-006 -2.58006e-006 -0.429094 18.4921 67.995 -19.5382 -8.13649 25.2327 3.48774 
50.7555 113.627 18.1836 -3.68894 8.75816 8.35627 0.18962 -2.1835 0.0663569 0.380599 -0.363989 0.115314 0.379308 1.28106 0.108961 -8.25071 -7.15767 -0.0437868 4.08123 13.9696 -0.67654 38.8055 -10.2051 -6.31432 106.101 -38.0609 -77.5873 3.01558e-006 -3.96121e-007 1.05971e-006 -94.9742 67.3689 73.5572 -4.18213e-006 2.16936e-006 -3.00243 8.02887 -4.95146 0.697672 -48.4998 -9.13647 5.52166 -93.4645 -26.5346 63.1415 -3.00225e-005 4.28475e-007 -2.281e-006 119.362 73.7204 -97.1336 2.67681e-005 3.49843e-006 3.00001 -8.02891 -4.95147 -0.697671 177.755 19.7955 2.04196 180 7.01553e-015 178.95 175.742 29.3661 179.86 -3.63578e-006 -3.53707e-006 0.416729 -17.955 67.5671 19.1749 8.13649 25.2327 -3.48774 -170.915 23.1574 -4.91412 4.54188e-006 -4.6773e-006 -1.04185 -4.6668 -29.9413 -0.291848 2.20793e-006 -2.58006e-006 -0.427988 18.4949 67.9987 -19.5415 -8.13649 25.2327 3.48774 
50.7294 113.47 18.1436 -3.70487 8.76977 8.34368 0.189837 -2.17373 0.0645545 0.380968 -0.344462 0.111655 0.379723 1.30059 0.105295 -8.22485 -7.14633 -0.0302544 4.09079 13.8783 -0.658261 38.8527 -10.1986 -6.30857 106.404 -37.8001 -76.9123 3.01558e-006 -3.96121e-007 1.05971e-006 -94.376 67.754 73.4337 -4.18213e-006 2.16936e-006 -3.00243 8.02887 -4.95146 0.697672 -48.4958 -9.19153 5.5634 -93.5578 -26.4886 62.9157 -3.00225e-005 4.28475e-007 -2.281e-006 119.182 73.8613 -97.1135 2.67681e-005 3.49843e-006 3.00001 -8.02891 -4.95147 -0.697671 177.816 19.8357 1.99312 180 7.01554e-015 178.952 175.753 29.3479 179.857 -3.63578e-006 -3.53707e-006 0.416295 -17.9508 67.5615 19.1707 8.13649 25.2327 -3.48774 -170.883 23.1846 -4.91837 4.54188e-006 -4.6773e-006 -1.04001 -4.6622 -29.8579 -0.289391 2.20793e-006 -2.58006e-006 -0.426713 18.4981 68.0028 -19.5454 -8.13649 25.2327 3.48774 
50.7739 113.334 18.1034 -3.7232 8.77638 8.32857 0.190366 -2.16263 0.0622271 0.381946 -0.322269 0.106912 0.38076 1.32278 0.100535 -8.19339 -7.13954 -0.0150021 4.09683 13.7908 -0.637559 38.9044 -10.1888 -6.3 106.705 -37.5272 -76.2329 3.01558e-006 -3.96121e-007 1.05971e-006 -93.7542 68.1445 73.2896 -4.18213e-006 2.16936e-006 -3.00243 8.02887 -4.95146 0.697672 -48.4874 -9.2511 5.60857 -93.6615 -26.4405 62.6766 -3.00225e-005 4.28475e-007 -2.281e-006 118.989 74.0143 -97.0929 2.67681e-005 3.49843e-006 3.00001 -8.02891 -4.95147 -0.697671 177.882 19.8703 1.94218 180 7.01554e-015 178.953 175.764 29.3292 179.854 -3.63578e-006 -3.53707e-006 0.415794 -17.9461 67.5552 19.1659 8.13649 25.2327 -3.48774 -170.849 23.2028 -4.92207 4.54188e-006 -4.6773e-006 -1.03801 -4.65581 -29.7671 -0.286306 2.20793e-006 -2.58006e-006 -0.425295 18.5017 68.0076 -19.5498 -8.13649 25.2327 3.48774 
50.7379 113.179 18.072 -3.74353 8.77894 8.31113 0.191138 -2.15042 0.0594372 0.383396 -0.297863 0.101217 0.382282 1.34719 0.0948153 -8.15723 -7.13676 0.00184593 4.10004 13.7065 -0.614655 38.9599 -10.1767 -6.28923 107.002 -37.2427 -75.5507 3.01558e-006 -3.96121e-007 1.05971e-006 -93.1062 68.5397 73.1221 -4.18213e-006 2.16936e-006 -3.00242 8.02887 -4.95146 0.697672 -48.4755 -9.31475 5.65684 -93.7744 -26.3901 62.4252 -3.00225e-005 4.28475e-007 -2.281e-006 118.78 74.1786 -97.0694 2.67681e-005 3.49843e-006 3.00001 -8.02891 -4.95147 -0.697671 177.953 19.9007 1.88963 180 7.01554e-015 178.955 175.774 29.3106 179.851 -3.63578e-006 -3.53707e-006 0.415248 -17.9409 67.5482 19.1606 8.13649 25.2327 -3.48774 -170.812 23.2138 -4.92548 4.54188e-006 -4.6773e-006 -1.03588 -4.64806 -29.6707 -0.282754 2.20793e-006 -2.58006e-006 -0.423762 18.5059 68.0129 -19.5547 -8.13649 25.2327 3.48774 
50.7489 113.03 18.0271 -3.76545 8.77843 8.29156 0.192082 -2.13733 0.0562472 0.38518 -0.271694 0.0947034 0.384146 1.37335 0.0882706 -8.11726 -7.13745 0.0201657 4.10112 13.6253 -0.589774 39.018 -10.1627 -6.27685 107.296 -36.947 -74.8672 3.01558e-006 -3.96121e-007 1.05971e-006 -92.4295 68.9384 72.9283 -4.18213e-006 2.16936e-006 -3.00242 8.02887 -4.95146 0.697672 -48.461 -9.38202 5.70787 -93.895 -26.3373 62.1624 -3.00225e-005 4.28475e-007 -2.281e-006 118.555 74.3535 -97.0405 2.67681e-005 3.49843e-006 3.00001 -8.02891 -4.95147 -0.697671 178.026 19.9284 1.83598 180 7.01554e-015 178.956 175.784 29.2931 179.849 -3.63578e-006 -3.53707e-006 0.414679 -17.9351 67.5406 19.1549 8.13649 25.2327 -3.48774 -170.774 23.2195 -4.92886 4.54188e-006 -4.6773e-006 -1.03362 -4.63937 -29.5707 -0.278892 2.20793e-006 -2.58006e-006 -0.422144 18.5105 68.0188 -19.5601 -8.13649 25.2327 3.48774 
